<svg xmlns="http://www.w3.org/2000/svg" style="background: transparent; background-color: transparent;" xmlns:xlink="http://www.w3.org/1999/xlink" version="1.1" width="402px" height="692px" viewBox="-0.5 -0.5 402 692" content="&lt;mxfile&gt;&lt;diagram id=&quot;xTyzlEZXLUQFZq9ykaCU&quot; name=&quot;Page-1&quot;&gt;7Vltc9o4EP41fGzG+C3pR97SXiftMSWdu36UbcVWYyyfLALcr79dWbJlbEhKk8x0LjAh6JF2pV3tPtaKkTdb7z4IUmafeULzkesku5E3H7nu+/ASPhHY10B4pYFUsKSGxi2wYv9SDToa3bCEVp2BkvNcsrILxrwoaCw7GBGCb7vD7njenbUkKe0Bq5jkffQvlsisRq8Cp8U/UpZmZuaxo3vWxAzWQJWRhG8tyFuMvJngXNbf1rsZzdF3xi+13PWR3mZhghZyQIBHP9AfMCInMc3AbioOXOZ/IWtt5hI6eWHw2305iM9pFQtWSgaQ6l7sJBUFwXV9q6iAf/wOPlaSSAr/l5u8orVwTiIIDCU0csMcVjy94wWur5J77ezwnw03He8qFQoTGDAOy13bCd9S/V9piVog0Ba5gekEb0SHAoDVM3fhhD00UFArU24AZcHckrXHmSWIU8p+1trxKWu1lpjnXHS0jFwvVq8h2aC7dR3/DPni0EzXiju3Cd0mJFub3EyucZfHeqk6n8fYTkiVUVTiQGObMUlXJUQmAFtgDhRgeT5rDPPCWehfXgJeScHvqdXjz/Gtp7DwO/VCiYyoAF7vUiSli9i/KFUgw8qnJGcphm8MeQMh603XVJJFwqRed8lZIVWmBBgJzgV4a+aoPwyEGWBjbGm8i112QQ2MD8AhzB0AB1V25w7QD4JC/JBIbYLT7NgDFZLujrLF2NrID5SDF8QehhiBK01bhrd1c9uSoGuoLrMJ0MgRTTZpo7rlJviig8c0NVudwVxTEt/TIulT1wyCg7ACWUl30TgrIFpSbdKn1Z9fRkia1/A5Wf5xlOWaKcB6MB4eZkQSfJgIvkZLy1LwB4r9Fd+ImFYXvz/n4SpCssa8LKKqNHNZPvx9iHER4vulidE7SYyGkuJ9zgoIaA9pSrNjcIQQLTKN+AakkpvIAKIGdMKrSMMwTRVuOLHgBe0Tq+tN3Pn7A4Z2T9BpjzF7jOwsLueT+S9wqTtEpk8i2PNo08Lcl+fSsMulwRCZ+kNk6r4ymc7hGR1xIs6h04+3n28UnYLLnE+ro2xqzWH4lFYVuJKpcyRy68XIGP5Gof8nCvWfRKHWqW5LoynWeFQ04em+MJn2uG88vprM5ido9riE1eMeEOnZ3PzGwE9gYM99KgOHr8LALc1+pTnBRKoyVnaTIziZHHA+neB1B7SinMf3txkrulFvR5TTjyjfwXcTlOayAyVB9zXLjZ5eOF+5+MZxeaQWgFvFYmDzXjSCJrMEX6kiQtrAj826XGmjiIgNokeEvVSlSUrNeC5kxlNekHzRojAjbNbfOPwiMM3vRhob812ntbdbSyoYWIB5VYM7Ji1d0PpuDIPvrSZs7K3GoZ56Y3Hxp+PZFBRW5e064LOUyj5hWlE/FNVCBdZDd8ahqNbqlkgcxzOoKf6MinqlWsq+tzpQ5DuPKKrt6ylSSdbY+Ip5F77l3Tl590yp8qz5e17e+f28s2u918274PCBdG7e9RS9Zt61FcfAVbGdlqt9Jel6FfOSTjECiX7ywqBJWeYQ7W1hseJ3cgtbiRfQSuz1SgjrZD6gFc4t8p0+qKHanN7JI0fpfiEycNz/2fLk/CXpisZ29cmaxebNy5O82fLJ0F3xIwf45ioZG8BXWtR1Dk7hx47soXr1ubh+PVoCmDO3cpo3NbQ70XDEpeTrRgsXCZYn3RWBaaxIb3mpmUkD5hmBBi6JxB9XALoC1/l9Uhcccsc6J5cW2wlIQVKkObUocFrwG50LTZmzJElSz+sow3K+nZhfzRDRP6tZs9BdSQrzHIBpNqICdvtK9WVW/XRgRqIpQahYPNC6ElEzRRXPN5JOms0bLFbcfrUyVME0tcZzljUvfXN/vAB6hoLn4Pbe75c7/tDtffj+l8sdaLa/adYPj/aHYW/xHw==&lt;/diagram&gt;&lt;/mxfile&gt;"><defs/><g><g><ellipse cx="200" cy="60.5" rx="40.5" ry="40.5" fill="#6c6477" stroke="#4d4d4d" pointer-events="all" style="fill: light-dark(rgb(108, 100, 119), rgb(153, 146, 162)); stroke: light-dark(rgb(77, 77, 77), rgb(171, 171, 171));"/><path d="M 100 125.3 C 100 102.93 118.13 84.8 140.5 84.8 L 259.5 84.8 C 281.87 84.8 300 102.93 300 125.3 L 300 159.5 C 300 181.87 281.87 200 259.5 200 L 140.5 200 C 118.13 200 100 181.87 100 159.5 Z" fill="#6c6477" stroke="#4d4d4d" stroke-miterlimit="10" pointer-events="all" style="fill: light-dark(rgb(108, 100, 119), rgb(153, 146, 162)); stroke: light-dark(rgb(77, 77, 77), rgb(171, 171, 171));"/><ellipse cx="200" cy="60.5" rx="40.5" ry="40.5" fill="#6c6477" stroke="#4d4d4d" pointer-events="all" style="fill: light-dark(rgb(108, 100, 119), rgb(153, 146, 162)); stroke: light-dark(rgb(77, 77, 77), rgb(171, 171, 171));"/></g><g><g transform="translate(-0.5 -0.5)"><switch><foreignObject style="overflow: visible; text-align: left;" pointer-events="none" width="100%" height="100%" requiredFeatures="http://www.w3.org/TR/SVG11/feature#Extensibility"><div xmlns="http://www.w3.org/1999/xhtml" style="display: flex; align-items: unsafe center; justify-content: unsafe center; width: 198px; height: 1px; padding-top: 143px; margin-left: 101px;"><div style="box-sizing: border-box; font-size: 0; text-align: center; color: #ffffff; "><div style="display: inline-block; font-size: 11px; font-family: &quot;Helvetica&quot;; color: light-dark(#ffffff, #121212); line-height: 1.2; pointer-events: all; white-space: normal; word-wrap: normal; "><font style="font-size: 16px"><b>Person</b></font><div>[Person]</div><br /><div><font style="font-size: 11px"><font color="#cccccc" style="color: light-dark(rgb(204, 204, 204), rgb(62, 62, 62));">External User of State Pulse</font></font></div></div></div></div></foreignObject><text x="200" y="146" fill="#ffffff" font-family="&quot;Helvetica&quot;" font-size="11px" text-anchor="middle">Person...</text></switch></g></g><g><path d="M 80 535 C 80 526.72 133.73 520 200 520 C 231.83 520 262.35 521.58 284.85 524.39 C 307.36 527.21 320 531.02 320 535 L 320 625 C 320 628.98 307.36 632.79 284.85 635.61 C 262.35 638.42 231.83 640 200 640 C 133.73 640 80 633.28 80 625 Z" fill="#23a2d9" stroke="#0e7dad" stroke-miterlimit="10" pointer-events="all" style="fill: light-dark(rgb(35, 162, 217), rgb(29, 138, 185)); stroke: light-dark(rgb(14, 125, 173), rgb(69, 164, 206));"/><path d="M 320 535 C 320 538.98 307.36 542.79 284.85 545.61 C 262.35 548.42 231.83 550 200 550 C 133.73 550 80 543.28 80 535" fill="none" stroke="#0e7dad" stroke-miterlimit="10" pointer-events="all" style="stroke: light-dark(rgb(14, 125, 173), rgb(69, 164, 206));"/></g><g><g transform="translate(-0.5 -0.5)"><switch><foreignObject style="overflow: visible; text-align: left;" pointer-events="none" width="100%" height="100%" requiredFeatures="http://www.w3.org/TR/SVG11/feature#Extensibility"><div xmlns="http://www.w3.org/1999/xhtml" style="display: flex; align-items: unsafe center; justify-content: unsafe center; width: 238px; height: 1px; padding-top: 594px; margin-left: 81px;"><div style="box-sizing: border-box; font-size: 0; text-align: center; color: #ffffff; "><div style="display: inline-block; font-size: 12px; font-family: &quot;Helvetica&quot;; color: light-dark(#ffffff, #121212); line-height: 1.2; pointer-events: all; white-space: normal; word-wrap: normal; "><font style="font-size: 16px"><b>Backend</b></font><div>[Container: JSON / API]</div><br /><div><font style="font-size: 11px"><font color="#E6E6E6" style="color: light-dark(rgb(230, 230, 230), rgb(39, 39, 39));">Backend with data from approved sources.</font></font></div></div></div></div></foreignObject><text x="200" y="597" fill="#ffffff" font-family="&quot;Helvetica&quot;" font-size="12px" text-anchor="middle">Backend...</text></switch></g></g><g><path d="M 80 288 C 80 283.58 83.58 280 88 280 L 312 280 C 316.42 280 320 283.58 320 288 L 320 432 C 320 436.42 316.42 440 312 440 L 88 440 C 83.58 440 80 436.42 80 432 Z" fill="#118acd" stroke="#0e7dad" stroke-miterlimit="10" pointer-events="all" style="fill: light-dark(rgb(17, 138, 205), rgb(49, 154, 211)); stroke: light-dark(rgb(14, 125, 173), rgb(69, 164, 206));"/><path d="M 85 288 C 85 286.34 86.34 285 88 285 L 261 285 C 262.66 285 264 286.34 264 288 L 264 294 C 264 295.66 262.66 297 261 297 L 88 297 C 86.34 297 85 295.66 85 294 Z M 269 288 C 269 286.34 270.34 285 272 285 L 278 285 C 279.66 285 281 286.34 281 288 L 281 294 C 281 295.66 279.66 297 278 297 L 272 297 C 270.34 297 269 295.66 269 294 Z M 286 288 C 286 286.34 287.34 285 289 285 L 295 285 C 296.66 285 298 286.34 298 288 L 298 294 C 298 295.66 296.66 297 295 297 L 289 297 C 287.34 297 286 295.66 286 294 Z M 303 288 C 303 286.34 304.34 285 306 285 L 312 285 C 313.66 285 315 286.34 315 288 L 315 294 C 315 295.66 313.66 297 312 297 L 306 297 C 304.34 297 303 295.66 303 294 Z M 85 310 C 85 305.58 88.58 302 93 302 L 307 302 C 311.42 302 315 305.58 315 310 L 315 427 C 315 431.42 311.42 435 307 435 L 93 435 C 88.58 435 85 431.42 85 427 Z" fill="#23a2d9" stroke="none" pointer-events="all" style="fill: light-dark(rgb(35, 162, 217), rgb(29, 138, 185));"/></g><g><g transform="translate(-0.5 -0.5)"><switch><foreignObject style="overflow: visible; text-align: left;" pointer-events="none" width="100%" height="100%" requiredFeatures="http://www.w3.org/TR/SVG11/feature#Extensibility"><div xmlns="http://www.w3.org/1999/xhtml" style="display: flex; align-items: unsafe center; justify-content: unsafe center; width: 238px; height: 1px; padding-top: 360px; margin-left: 81px;"><div style="box-sizing: border-box; font-size: 0; text-align: center; color: #ffffff; "><div style="display: inline-block; font-size: 12px; font-family: &quot;Helvetica&quot;; color: light-dark(#ffffff, #121212); line-height: 1.2; pointer-events: all; white-space: normal; word-wrap: normal; "><font style="font-size: 16px"><b>Dashboard</b></font><div>[Container: HTML + JS]</div><br /><div><font style="font-size: 11px"><font color="#E6E6E6" style="color: light-dark(rgb(230, 230, 230), rgb(39, 39, 39));">Dashboard with essential data. </font></font></div></div></div></div></foreignObject><text x="200" y="364" fill="#ffffff" font-family="&quot;Helvetica&quot;" font-size="12px" text-anchor="middle">Dashboard...</text></switch></g></g><g><path d="M 200 200 L 200 263.88" fill="none" stroke="#828282" stroke-miterlimit="10" pointer-events="stroke" style="stroke: light-dark(rgb(130, 130, 130), rgb(125, 125, 125));"/><path d="M 200 278.88 L 195 263.88 L 205 263.88 Z" fill="#828282" stroke="#828282" stroke-miterlimit="10" pointer-events="all" style="fill: light-dark(rgb(130, 130, 130), rgb(125, 125, 125)); stroke: light-dark(rgb(130, 130, 130), rgb(125, 125, 125));"/></g><g><path d="M 200 440 L 200 503.88" fill="none" stroke="#828282" stroke-miterlimit="10" pointer-events="stroke" style="stroke: light-dark(rgb(130, 130, 130), rgb(125, 125, 125));"/><path d="M 200 518.88 L 195 503.88 L 205 503.88 Z" fill="#828282" stroke="#828282" stroke-miterlimit="10" pointer-events="all" style="fill: light-dark(rgb(130, 130, 130), rgb(125, 125, 125)); stroke: light-dark(rgb(130, 130, 130), rgb(125, 125, 125));"/></g><g><rect x="0" y="0" width="400" height="690" rx="10" ry="10" fill="none" stroke="#666666" stroke-dasharray="8 4" pointer-events="none" style="stroke: light-dark(rgb(102, 102, 102), rgb(149, 149, 149));"/></g><g><g transform="translate(-0.5 -0.5)"><switch><foreignObject style="overflow: visible; text-align: left;" pointer-events="none" width="100%" height="100%" requiredFeatures="http://www.w3.org/TR/SVG11/feature#Extensibility"><div xmlns="http://www.w3.org/1999/xhtml" style="display: flex; align-items: unsafe flex-end; justify-content: unsafe flex-start; width: 382px; height: 1px; padding-top: 679px; margin-left: 10px;"><div style="box-sizing: border-box; font-size: 0; text-align: left; color: #333333; "><div style="display: inline-block; font-size: 11px; font-family: &quot;Helvetica&quot;; color: light-dark(#333333, #c1c1c1); line-height: 1.2; pointer-events: all; white-space: normal; word-wrap: normal; "><font style="font-size: 16px"><b><div style="text-align: left">State Pulse</div></b></font><div style="text-align: left">[Software System]</div></div></div></div></foreignObject><text x="10" y="679" fill="#333333" font-family="&quot;Helvetica&quot;" font-size="11px">State Pulse...</text></switch></g></g></g><switch><g requiredFeatures="http://www.w3.org/TR/SVG11/feature#Extensibility"/><a transform="translate(0,-5)" xlink:href="https://www.drawio.com/doc/faq/svg-export-text-problems" target="_blank"><text text-anchor="middle" font-size="10px" x="50%" y="100%">Text is not SVG - cannot display</text></a></switch></svg>